<svg width="35" height="36" viewBox="0 0 35 36" fill="none" xmlns="http://www.w3.org/2000/svg">
<path id="Clip 19" fill-rule="evenodd" clip-rule="evenodd" d="M17.2786 3.2426C21.8919 3.2426 22.4385 3.2606 24.2606 3.3473C25.9452 3.42746 26.8601 3.72112 27.4688 3.96734C28.2754 4.29371 28.8511 4.68389 29.4558 5.31292C30.0598 5.94277 30.4344 6.54236 30.7477 7.38243C30.9841 8.01637 31.2661 8.96932 31.3431 10.7239C31.4263 12.6216 31.4436 13.1909 31.4436 17.9958C31.4436 22.8006 31.4263 23.37 31.3431 25.2677C31.2661 27.0223 30.9841 27.9752 30.7477 28.6092C30.4344 29.4492 30.0598 30.0488 29.4558 30.6787C28.8511 31.3077 28.2754 31.6979 27.4688 32.0243C26.8601 32.2713 25.9452 32.5641 24.2606 32.6443C22.4385 32.731 21.8927 32.749 17.2786 32.749C12.6645 32.749 12.1187 32.731 10.2966 32.6443C8.61201 32.5641 7.69705 32.2713 7.08839 32.0243C6.28181 31.6979 5.70613 31.3077 5.10139 30.6787C4.49744 30.0488 4.12282 29.4492 3.80946 28.6092C3.57227 27.9752 3.29111 27.0223 3.21414 25.2677C3.13089 23.37 3.11362 22.8006 3.11362 17.9958C3.11362 13.1909 3.13089 12.6216 3.21414 10.7239C3.29111 8.96932 3.57227 8.01637 3.80946 7.38243C4.12282 6.54236 4.49744 5.94277 5.10139 5.31292C5.70613 4.68389 6.28181 4.29371 7.08839 3.96734C7.69705 3.72112 8.61201 3.42746 10.2966 3.3473C12.1187 3.2606 12.6653 3.2426 17.2786 3.2426ZM17.2782 0C12.5856 0 11.9974 0.0204497 10.1541 0.107974C8.31553 0.195499 7.05972 0.49979 5.96019 0.944774C4.82376 1.40448 3.86011 2.01961 2.8996 3.02C1.93909 4.02122 1.34848 5.02407 0.907105 6.2077C0.479863 7.35288 0.187704 8.66084 0.103669 10.5757C0.0196343 12.4956 0 13.1082 0 17.9957C0 22.8832 0.0196343 23.4958 0.103669 25.4156C0.187704 27.3306 0.479863 28.6385 0.907105 29.7837C1.34848 30.9673 1.93909 31.9702 2.8996 32.9706C3.86011 33.9718 4.82376 34.5869 5.96019 35.0466C7.05972 35.4916 8.31553 35.7959 10.1541 35.8834C11.9974 35.9709 12.5856 35.9914 17.2782 35.9914C21.9708 35.9914 22.559 35.9709 24.4015 35.8834C26.2409 35.7959 27.4967 35.4916 28.5962 35.0466C29.7326 34.5869 30.6955 33.9718 31.656 32.9706C32.6173 31.9702 33.2079 30.9673 33.6493 29.7837C34.0765 28.6385 34.3687 27.3306 34.4527 25.4156C34.5368 23.4958 34.5564 22.8832 34.5564 17.9957C34.5564 13.1082 34.5368 12.4956 34.4527 10.5757C34.3687 8.66084 34.0765 7.35288 33.6493 6.2077C33.2079 5.02407 32.6173 4.02122 31.656 3.02C30.6955 2.01961 29.7326 1.40448 28.5962 0.944774C27.4967 0.49979 26.2409 0.195499 24.4015 0.107974C22.559 0.0204497 21.9708 0 17.2782 0ZM17.3129 8.78367C12.409 8.78367 8.43346 12.9243 8.43346 18.0318C8.43346 23.1385 12.409 27.2792 17.3129 27.2792C22.216 27.2792 26.1915 23.1385 26.1915 18.0318C26.1915 12.9243 22.216 8.78367 17.3129 8.78367ZM17.3132 24.0341C14.1301 24.0341 11.5493 21.347 11.5493 18.0317C11.5493 14.7164 14.1301 12.0285 17.3132 12.0285C20.4963 12.0285 23.0762 14.7164 23.0762 18.0317C23.0762 21.347 20.4963 24.0341 17.3132 24.0341ZM28.5225 8.35491C28.5225 9.53854 27.6021 10.4972 26.4656 10.4972C25.33 10.4972 24.4087 9.53854 24.4087 8.35491C24.4087 7.17211 25.33 6.21261 26.4656 6.21261C27.6021 6.21261 28.5225 7.17211 28.5225 8.35491Z" fill="white"/>
</svg>
